<?xml version="1.0" encoding="utf-8"?><svg xml:space="preserve" viewBox="0 0 100 100" y="0" x="0" xmlns="http://www.w3.org/2000/svg" id="圖層_1" version="1.1" width="199px" height="199px" xmlns:xlink="http://www.w3.org/1999/xlink" style="width:100%;height:100%;background-size:initial;background-repeat-y:initial;background-repeat-x:initial;background-position-y:initial;background-position-x:initial;background-origin:initial;background-color:initial;background-clip:initial;background-attachment:initial;animation-play-state:paused" ><g class="ldl-scale" style="transform-origin:50% 50%;transform:rotate(0deg) scale(1, 1);animation-play-state:paused" ><circle fill="#333" r="40" cy="50" cx="50" style="fill:rgb(51, 51, 51);animation-play-state:paused" ></circle>
<path fill="#abbd81" d="M74.7 29.1c-.5-.6-1.4-.8-2-.3-6.1 4.3-11.9 9.2-17.2 14.6-3.9 4-7.5 8.2-10.8 12.7-.6.8-1.7.8-2.3.1-1.4-1.5-2.9-3-4.5-4.2-3.3-2.6-6.9-4.6-10.7-5.9-.8-.3-1.6.1-1.9.8l-.1.3c-.3.7 0 1.5.6 1.9 3.2 1.9 6.1 4.2 8.4 6.8 2.6 3 4.6 6.4 6 10.1l1.7 4.5c.5 1.2 2.1 1.3 2.7.1l2.3-4.4c3.5-6.8 7.6-13.3 12.4-19.3 4.5-5.7 9.6-10.9 15.1-15.7.7-.6.8-1.4.3-2.1z" style="fill:rgb(151, 112, 209);animation-play-state:paused" ></path>
<metadata xmlns:d="https://loading.io/stock/" style="animation-play-state:paused" ><d:name style="animation-play-state:paused" >ok</d:name>
<d:tags style="animation-play-state:paused" >ok,confirm,ready,positive,check,right,correct,affirmative,success</d:tags>
<d:license style="animation-play-state:paused" >by</d:license>
<d:slug style="animation-play-state:paused" >1arbvr</d:slug></metadata></g><!-- generated by https://loading.io/ --></svg>